<?xml version="1.0" encoding="UTF-8"?>
<svg id="Layer_1" data-name="Layer 1" xmlns="http://www.w3.org/2000/svg" viewBox="0 0 70 70">
  <defs>
    <style>
      .cls-1 {
        stroke: #c5117a;
      }

      .cls-1, .cls-2 {
        fill: none;
        stroke-width: 4px;
      }

      .cls-2 {
        stroke: #fff;
        stroke-linecap: round;
        stroke-linejoin: round;
      }
    </style>
  </defs>
  <path class="cls-2" d="m48.374,23.744c-.803-.803-1.757-1.439-2.807-1.874-1.05-.434-2.175-.658-3.312-.658s-2.262.224-3.312.658c-1.05.434-2.004,1.071-2.807,1.874l-1.667,1.665-1.667-1.665c-1.623-1.621-3.824-2.531-6.119-2.531s-4.496.91-6.119,2.531c-1.623,1.62-2.534,3.818-2.534,6.11s.912,4.489,2.534,6.11l1.667,1.665,12.237,12.22,12.237-12.22,1.667-1.665c.804-.802,1.441-1.755,1.876-2.803.435-1.048.659-2.172.659-3.307s-.224-2.259-.659-3.307c-.435-1.048-1.073-2.001-1.876-2.803Z"/>
  <circle class="cls-1" cx="35" cy="35" r="33"/>
</svg>