<?xml version="1.0" encoding="UTF-8"?>
<svg id="Layer_1" data-name="Layer 1" xmlns="http://www.w3.org/2000/svg" viewBox="0 0 50 50">
  <defs>
    <style>
      .cls-1 {
        stroke-linecap: round;
        stroke-linejoin: round;
      }

      .cls-1, .cls-2 {
        fill: none;
        stroke: #fff;
        stroke-width: 2px;
      }
    </style>
  </defs>
  <circle class="cls-2" cx="25" cy="25" r="24"/>
  <path class="cls-1" d="m36.17,30.443v2.979c.001.277-.06.55-.179.804-.119.253-.294.481-.514.668-.219.187-.479.329-.761.418-.282.089-.581.121-.878.097-3.292-.332-6.454-1.376-9.232-3.049-2.585-1.525-4.776-3.559-6.419-5.959-1.808-2.591-2.933-5.541-3.284-8.611-.027-.275.008-.551.103-.813.095-.261.247-.501.448-.705.2-.204.444-.366.716-.478.272-.111.565-.169.863-.169h3.209c.519-.005,1.023.166,1.416.48.394.314.651.751.723,1.228.135.954.387,1.89.749,2.791.144.355.175.742.09,1.113-.085.371-.284.712-.571.982l-1.359,1.261c1.523,2.486,3.74,4.545,6.419,5.959l1.359-1.261c.291-.267.658-.451,1.058-.53.4-.079.816-.05,1.199.083.971.336,1.979.569,3.006.695.52.068.994.311,1.333.683.339.372.52.846.507,1.333Z"/>
</svg>